<?xml version="1.0" encoding="UTF-8" standalone="no"?>
<svg
   height="1024"
   preserveAspectRatio="none"
   style="display: block;"
   version="1.1"
   viewBox="0 0 2048 2048"
   width="1024"
   id="svg28"
   sodipodi:docname="logo-retro-a.svg"
   inkscape:version="1.4.3 (0d15f75042, 2025-12-25)"
   xmlns:inkscape="http://www.inkscape.org/namespaces/inkscape"
   xmlns:sodipodi="http://sodipodi.sourceforge.net/DTD/sodipodi-0.dtd"
   xmlns="http://www.w3.org/2000/svg"
   xmlns:svg="http://www.w3.org/2000/svg">
  <defs
     id="defs28" />
  <sodipodi:namedview
     id="namedview28"
     pagecolor="#ffffff"
     bordercolor="#000000"
     borderopacity="0.25"
     inkscape:showpageshadow="2"
     inkscape:pageopacity="0.0"
     inkscape:pagecheckerboard="0"
     inkscape:deskcolor="#d1d1d1"
     inkscape:zoom="0.61151712"
     inkscape:cx="100.56955"
     inkscape:cy="772.66847"
     inkscape:window-width="2560"
     inkscape:window-height="1404"
     inkscape:window-x="0"
     inkscape:window-y="0"
     inkscape:window-maximized="1"
     inkscape:current-layer="svg28" />
  <path
     d="M 885.828 146.951 L 1162.25 146.985 C 1161.84 168.922 1158.04 195.823 1156.8 218.663 C 1171.07 222.109 1185.24 225.419 1199.34 229.516 L 1188.33 279.002 C 1205.14 284.376 1222.05 289.475 1239.04 294.295 C 1244.84 279.754 1250.86 265.305 1257.12 250.956 C 1265.07 254.593 1271.07 257.268 1279.41 259.724 C 1285.9 244.568 1292.05 229.266 1297.85 213.83 C 1304.05 216.149 1310.81 219.174 1316.97 221.779 C 1322.18 208.793 1327.63 195.905 1333.31 183.119 C 1364.61 197.618 1397.03 210.456 1427.87 224.843 C 1416.01 249.97 1399.68 282.037 1389.8 307.434 C 1394.04 309.385 1398.15 311.783 1402.23 314.056 C 1393.97 329.346 1386.21 345.633 1378.69 361.297 L 1404.33 375.784 L 1427.95 345.929 C 1440.91 355.2 1459.13 368.65 1472.91 376.168 L 1501.04 338.031 C 1510.93 345.659 1520.67 353.475 1530.26 361.473 C 1544.43 346.23 1561.07 330.057 1575.75 314.773 C 1588.99 326.824 1605.24 343.941 1618.59 356.866 C 1658.35 395.468 1697.73 434.469 1736.71 473.865 C 1720.22 488.337 1704.11 503.235 1688.39 518.544 L 1715.03 548.051 C 1702.53 559.56 1686.39 573.283 1673.25 583.903 C 1682.48 597.29 1694.2 610.14 1703.95 624.141 C 1695.8 629.742 1686.98 636.912 1679.09 643.041 C 1685.38 653.686 1693.78 665.105 1700.95 675.364 C 1705.65 673.182 1710.41 671.118 1715.21 669.142 C 1753.2 653.478 1790.08 635.368 1827.97 619.445 C 1839.18 649.916 1856.37 684.062 1869.08 714.66 C 1854.53 719.808 1839.65 725.719 1825.2 731.249 C 1827.61 738.523 1830.52 745.132 1833.52 752.178 C 1818 757.374 1803.68 761.79 1788.16 767.439 C 1790.13 774.268 1792.19 781.071 1794.34 787.847 C 1782.7 792.133 1766.37 796.493 1754.32 799.906 C 1759.15 818.087 1762.67 835.617 1767.9 854.235 C 1783.04 850.529 1803.53 846.964 1819.03 843.961 C 1822.4 859.389 1825.96 874.774 1829.71 890.114 C 1852.87 888.307 1877.05 886.068 1900.18 884.94 C 1902.13 975.281 1900.83 1071.63 1900.24 1162.21 C 1877.8 1159.98 1852.14 1158.06 1829.63 1156.81 C 1827.78 1168.32 1821.38 1190.91 1818.4 1203.01 C 1802.42 1199.15 1783.95 1195.74 1767.61 1192.22 C 1762.73 1209 1758.4 1228.93 1754.24 1246.1 C 1767.5 1251.57 1781.55 1255.68 1795.16 1261.22 C 1792.68 1267.04 1791 1273.61 1789.23 1279.71 C 1803.3 1285.4 1818.15 1290.75 1832.4 1295.98 L 1825.07 1314.52 C 1839.62 1320.73 1854.12 1327.06 1868.55 1333.52 C 1856.65 1364.01 1840.48 1397.33 1827.43 1427.92 C 1801.94 1416.35 1776.36 1404.96 1750.69 1393.77 C 1734.42 1386.54 1717.6 1378.35 1701.07 1372.05 C 1693.27 1382.59 1686.01 1393.41 1678.63 1404.25 C 1686.68 1410.11 1695.23 1417.51 1702.97 1423.92 L 1673.75 1462.05 C 1686.59 1473.93 1701.78 1485.71 1715.52 1496.72 C 1706.46 1506.92 1697.54 1517.24 1688.75 1527.68 C 1698.88 1539.8 1722.84 1559.55 1735.8 1573.72 C 1682.7 1626.88 1629.19 1679.64 1575.28 1731.99 C 1559.43 1716.38 1545.53 1701.46 1530.23 1685.45 C 1520.61 1693.29 1511.81 1701.22 1502.58 1709.51 C 1493.2 1696.1 1483.2 1683.13 1472.63 1670.63 C 1458.12 1679.97 1444.97 1690.94 1430.06 1700.42 C 1421.83 1689.96 1414.42 1680.18 1405.14 1670.62 C 1396.4 1676.16 1387.5 1681.42 1378.45 1686.41 C 1384.66 1701.05 1394.59 1717.43 1401.53 1733.19 L 1389.84 1738.44 C 1399.06 1762.91 1416.21 1797.62 1427.55 1822.18 C 1396.6 1836.68 1365.25 1850.32 1333.54 1863.08 C 1327.84 1852.76 1321.93 1837.44 1315.83 1825.68 L 1299.63 1833 C 1292.62 1818.14 1285.72 1803.23 1278.92 1788.27 L 1258.2 1795.99 C 1251.28 1781.18 1245.47 1768.87 1239.72 1753.58 L 1188.49 1767.84 C 1191.21 1785.58 1194.73 1800.1 1199.23 1817.4 C 1184.97 1821.03 1170.81 1825.02 1156.75 1829.39 C 1157.04 1839.46 1164.14 1896.49 1161.07 1900.73 L 1156.25 1900.98 L 886.165 1900.94 C 887.374 1877.13 889.357 1852.42 890.984 1828.58 C 878.376 1824.91 863.393 1821.54 850.502 1818.32 C 852.104 1804.83 857.966 1781.68 860.997 1767.51 C 846.237 1762.2 824.849 1757.02 809.554 1752.95 L 791.554 1795.85 C 785.337 1792.85 776.366 1789.63 769.75 1787.04 C 762.49 1802.39 755.882 1818.03 749.941 1833.94 C 743.594 1830.8 738.127 1828.43 731.573 1825.72 C 726.426 1836.27 720.702 1851.45 715.857 1862.74 C 683.438 1850.21 652.357 1835.08 620.909 1822.84 C 634.282 1794.88 647.082 1766.66 659.302 1738.18 C 655.197 1736.27 650.429 1733.46 646.388 1731.24 C 654.327 1718.8 663.675 1698.55 670.162 1685.05 C 661.659 1679.38 652.739 1674.24 643.941 1669.03 C 637.25 1679.23 628.528 1690.07 621.327 1700.36 C 609.292 1690.89 590.793 1679.3 577.406 1669.66 C 567.183 1682.66 556.881 1695.55 547.281 1709.02 C 538.118 1701.82 527.414 1692.87 519.114 1684.84 C 503.81 1700.45 489.496 1716.77 474.214 1732.29 C 459.178 1717.31 442.616 1702.2 427.226 1687.3 C 407.022 1667.36 386.919 1647.32 366.918 1627.18 C 349.068 1609.4 330.316 1591.41 312.983 1573.21 C 327.84 1558.28 344.866 1543.16 360.204 1528.28 C 352.19 1520.62 340.839 1506.57 333.683 1497.79 C 347.36 1486.16 361.362 1474.94 374.845 1463.08 C 365.641 1450.58 353.911 1437.34 344.056 1424.45 L 369.339 1405.6 C 363.817 1395.27 353.922 1382 347.005 1372.23 C 327.077 1380.28 306.025 1390.49 286.132 1399.17 C 264.945 1408.41 242.492 1417.94 221.929 1428.24 C 210.082 1407.39 202.081 1379.4 190.786 1357.81 C 187.045 1350.66 182.507 1340.67 179.947 1333.03 C 193.4 1327.09 207.465 1321.41 221.067 1315.72 C 219.14 1308.99 216.522 1301.67 214.279 1294.97 C 229.646 1290.32 244.757 1284.91 259.913 1279.61 C 258.13 1273.64 255.413 1266.85 253.195 1260.91 C 266.191 1256.29 280.603 1251.98 293.82 1247.75 C 289.253 1229.7 285.012 1211.57 281.1 1193.37 C 263.896 1196.54 246.736 1199.94 229.625 1203.58 C 226.273 1187.92 222.591 1172.33 218.58 1156.83 C 198.856 1157.27 169.731 1160.72 149.03 1162.12 C 147.757 1070.83 148.926 976.549 148.661 884.857 C 170.994 885.801 195.584 888.766 218.353 890.213 C 221.915 875.229 225.913 859.5 228.5 844.397 C 242.33 845.855 265.181 851.3 280.334 853.929 C 283.971 836.47 288.539 818.37 292.666 800.963 C 279.471 796.191 266.241 791.515 252.979 786.935 L 259.578 768.036 C 247.538 762.151 228.964 756.417 215.209 750.473 C 217.723 744.065 219.826 737.648 222.018 731.127 C 207.991 725.4 194.063 719.435 180.239 713.234 C 190.92 685.135 208.609 646.544 221.341 619.045 C 263.332 637.655 305.141 656.675 346.761 676.102 C 354.405 665.717 362.785 655.304 370.589 644.846 C 364.369 638.976 352.392 631.147 344.93 625.085 C 351.606 613.382 367.323 593.828 376.024 582.197 C 365.179 572.259 345.723 557.688 333.7 548.051 C 341.772 538.183 351.76 528.959 360.38 519.104 C 349.95 506.109 325.727 485.503 312.633 472.027 C 363.78 418.599 422.386 368.256 472.885 314.292 C 487.438 328.75 504.134 348.904 518.9 362.056 C 528.698 353.057 536.703 346.152 547.604 338.564 C 556.972 349.609 566.89 364.435 577.012 376.728 C 591.49 367.607 607.103 356.479 620.787 346.231 C 628.217 353.621 638.397 367.074 644.986 375.598 C 651.786 370.445 662.652 364.2 670.172 359.586 C 662.485 346.652 654.061 328.145 647.312 314.255 C 650.831 311.902 655.215 309.734 659.003 307.727 C 650.571 284.133 631.657 248.431 620.468 224.068 C 648.35 213.37 689.243 192.778 715.913 184.22 C 720.966 196.734 726.877 209.306 732.478 221.623 C 738.059 219.049 745.048 216.441 750.85 214.112 C 756.928 229.194 763.013 245.35 769.851 260.008 C 776.631 257.338 784.043 253.779 790.987 250.891 C 797.387 266.065 803.532 278.764 808.94 294.437 C 826.264 289.474 843.556 284.396 860.813 279.202 C 856.937 264.441 853.464 245.363 849.805 229.815 C 863.52 226.065 877.213 222.239 890.886 218.339 C 888.677 195.503 887.605 170.156 885.828 146.951 z M 996.824 308.439 C 1034.15 306.603 1080.11 309.089 1117.01 314.126 C 1116 355.629 1115.81 397.27 1114.2 438.74 C 1139.59 444.606 1165.9 448.619 1192.15 454.805 C 1196.22 439.095 1201.13 418.94 1206.7 403.756 C 1216.83 407.445 1226.34 411 1236.73 413.982 C 1242.42 395.699 1250.25 375.937 1256.93 357.765 C 1281.01 369.953 1309.41 380.288 1333.94 393.69 C 1326.45 409.154 1317.39 425.567 1309.34 440.91 C 1317.34 446.182 1326.04 451.427 1334.2 456.541 C 1326.22 471.58 1317.66 486.306 1308.55 500.685 C 1325.09 512.875 1351.32 528.167 1369.64 540.525 C 1397.62 511.157 1424.68 480.253 1452.39 450.74 C 1490.93 483.756 1528.53 515.061 1563.53 552.246 C 1575.46 564.925 1586.16 574.91 1596.78 589.124 C 1568.45 618.064 1531.74 648.959 1501.31 676.766 C 1517.34 697.439 1530.42 718.518 1544.96 740.194 C 1560.73 729.708 1571.62 723.934 1588.13 714.959 C 1592.14 721.189 1596.41 728.978 1600.2 735.473 C 1616.66 727.5 1633.03 716.714 1649.91 708.277 C 1664.88 737.665 1678.18 767.878 1689.74 798.772 L 1630.26 815.774 C 1632.91 823.63 1635.38 832.207 1637.84 840.178 C 1620.35 845.194 1604.34 849.963 1586.59 854.572 C 1591.43 872.679 1597.98 911.143 1599.33 929.711 L 1739.71 930.138 C 1746.19 985.729 1749.11 1061.98 1738.57 1117.35 L 1599.22 1117.99 C 1597.72 1139.71 1591.89 1170.49 1588.23 1192.5 C 1603.42 1198.03 1622.63 1203.17 1638.39 1207.72 C 1635.82 1215.46 1632.83 1223.46 1630.09 1231.18 C 1650 1236.34 1669.73 1242.16 1689.26 1248.62 C 1679.11 1276.93 1663.32 1310.11 1650.26 1337.36 C 1634.45 1330.03 1616.31 1320.08 1600.5 1311.99 L 1587.89 1333.2 C 1575.08 1326.36 1557.68 1315.64 1545.4 1307.92 C 1531.09 1327.5 1516.9 1348.8 1502.2 1367.79 C 1523.44 1389.64 1548.02 1410.22 1570.04 1431.42 C 1579.32 1440.35 1588.72 1448.22 1597.43 1457.82 C 1578.76 1480.96 1556.52 1502.17 1535.17 1522.81 C 1507.62 1549.43 1481.7 1572.75 1451.32 1595.99 C 1439.62 1584.18 1428.14 1570.08 1416.97 1557.55 L 1369.8 1505.41 C 1357.18 1515.62 1323.27 1537.33 1308.9 1545.88 C 1318.72 1561.55 1326.58 1572.93 1334.08 1590.1 L 1308.94 1606.42 C 1315.43 1615.94 1328.17 1641.47 1334.17 1652.73 C 1309.18 1663.52 1282.3 1677.09 1257.04 1688.46 C 1250.23 1673.77 1242.49 1649.77 1236.95 1633.95 C 1227.04 1637.85 1217.04 1641.53 1206.96 1644.98 C 1201.99 1631.31 1196.04 1607.54 1191.66 1592.74 C 1165.76 1598.68 1139.69 1603.91 1113.5 1608.4 C 1115.26 1650.13 1116.4 1691.88 1116.94 1733.64 C 1099.45 1736.71 1073.47 1738.62 1055.84 1739.22 C 1022.57 1741.92 963.903 1739.28 931.046 1733.59 L 934.244 1607.79 C 907.125 1603.75 884.343 1598.84 857.659 1592.89 C 852.505 1609.88 847.762 1627.65 842.951 1644.79 C 832.98 1641.69 821.79 1637.27 811.894 1633.62 C 804.782 1650.42 797.959 1671.09 791.744 1688.49 C 774.075 1682.67 731.508 1661.42 715.295 1652.04 C 722.045 1636.33 731.179 1620.34 739.433 1605.27 C 731.469 1600.14 722.419 1594.83 714.28 1589.85 C 721.92 1574.95 730.32 1560.44 739.449 1546.4 C 720.867 1532.34 698.442 1520.37 678.026 1504.94 C 651.401 1534 621.816 1566.17 596.325 1596 C 557.08 1564.57 480.697 1496.37 451.696 1457.29 C 480.677 1428.65 516.144 1398.78 546.604 1369.75 L 503.701 1308.13 C 489.372 1316.8 476.98 1325.3 462.144 1333.66 C 457.662 1327.29 452.593 1318.44 448.448 1311.66 C 431.763 1319.63 416.847 1329.65 399.068 1337.58 C 390.597 1325.05 365.099 1265.14 358.395 1248.89 C 377.883 1243.32 398.641 1237.75 417.796 1231.42 C 416.04 1223.73 413.213 1214.32 411.17 1206.5 C 428.07 1201.92 444.924 1197.18 461.73 1192.27 C 456.566 1170.36 450.228 1140.18 448.47 1117.82 L 310.356 1118 C 301.1 1044.79 300.779 1001.89 310.325 928.186 C 356.689 929.014 402.474 927.672 448.809 928.967 C 453.442 903.973 456.092 880.28 461.502 854.484 C 444.255 850.667 427.698 845.063 410.275 841.193 C 412.949 833.222 415.437 823.057 417.69 814.81 C 399.577 810.216 376.762 805.075 359.949 798.134 C 368.064 771.791 387.041 733.413 399.217 708.614 C 418.081 717.393 431.182 724.569 449.147 735.204 L 462.315 713.253 C 476.455 721.41 490.302 730.065 503.83 739.202 C 517.534 718.1 531.886 697.426 546.867 677.211 C 537.443 670.117 520.371 653.408 511.038 644.771 C 491.692 626.87 469.592 607.301 451.389 588.414 C 495.961 538.296 544.796 492.138 597.343 450.458 C 607.384 463.664 622.826 479.225 634.419 491.721 C 649.254 507.797 663.836 524.106 678.157 540.642 C 698.66 528.027 718.938 514.49 739.635 501.714 C 731.865 487.054 720.543 472.235 713.719 456.79 C 722.001 451.584 730.367 446.511 738.812 441.575 C 730.961 426.978 722.289 410.119 715.554 395.047 C 728.983 386.431 774.061 366.627 791.242 358.562 C 797.388 376.301 804.53 397.32 811.672 414.493 C 822.164 410.613 832.699 406.85 843.276 403.207 C 848.629 419.316 852.784 438.254 857.677 455.046 C 882.667 448.812 908.711 444.812 934.141 440.454 C 932.161 400.033 931.504 354.115 930.981 313.395 C 952.877 311.112 974.834 309.46 996.824 308.439 z"
     fill="rgb(102,192,244)"
     fill-rule="evenodd"
     id="path1"
     transform="translate(0,0)"
     style="stroke:none;stroke-opacity:1;stroke-width:4;stroke-dasharray:none" />
  <path
     d="M 924.445 510.21 L 1138.86 510.08 L 1138.96 535.09 L 1203.86 535.133 L 1203.66 564.956 L 1271.12 564.857 L 1271.08 593.82 C 1277.9 594.021 1326.78 593.521 1330.19 594.867 C 1330.76 603.07 1330.77 610.885 1330.83 619.089 C 1343.01 619.236 1355.16 619.088 1367.35 619.285 C 1367.58 627.566 1367.65 635.85 1367.55 644.134 L 1392.37 643.975 C 1393.27 654.424 1392.95 667.224 1392.97 677.875 L 1418.82 678.025 L 1418.82 707.173 L 1439.56 707.296 L 1439.37 735.147 L 1464.93 735.194 L 1464.99 790.727 L 1493.03 790.67 C 1493 814.077 1492.74 837.878 1492.95 861.251 L 1519.19 861.198 L 1519.04 924.969 L 1542.64 924.995 L 1542.88 1122.13 L 1518.82 1122.25 L 1518.87 1176 L 1492.45 1176.05 L 1492.16 1247.04 L 1464.77 1247.03 L 1464.85 1302.3 C 1459.01 1302.9 1440.75 1302.17 1437.78 1303.92 L 1438.01 1327.44 L 1418.04 1327.35 L 1418.2 1357.34 L 1391.12 1357.47 L 1391.32 1395.75 L 1366 1395.58 L 1366.1 1419.46 C 1353.11 1419.4 1339.54 1419.14 1326.6 1419.38 L 1326.69 1447.12 L 1270.88 1447.02 C 1271.17 1455.11 1270.96 1464.36 1270.96 1472.54 C 1248.69 1472.72 1226.42 1472.71 1204.15 1472.51 L 1204.27 1500.43 L 1141.86 1500.46 L 1141.93 1526.97 L 929.001 1526.69 L 928.963 1500.66 C 906.139 1499.73 881.318 1500.14 858.347 1500.09 L 858.735 1477.03 L 803.031 1477.03 L 803.04 1454.03 L 753.982 1454.07 L 754.003 1426.65 C 734.192 1426.45 714.378 1426.5 694.568 1426.8 L 694.623 1401.07 L 670.7 1401.16 L 670.777 1378.96 C 665.775 1378.85 656.333 1380.34 652.209 1377.97 C 651.036 1377.3 651.491 1375.61 651.418 1373.54 C 651.251 1367.12 651.434 1360.02 651.467 1353.54 L 634.463 1353.58 C 632.491 1353.66 630.703 1353.62 628.728 1353.59 C 627.941 1347.82 628.358 1334.09 628.383 1327.71 C 620.323 1327.75 611.426 1327.99 603.469 1327.27 C 603.398 1317.79 603.039 1308.49 603.013 1298.95 L 628.082 1298.97 L 628.03 1271.26 C 643.005 1271.19 657.981 1271.19 672.956 1271.27 L 672.933 1249.73 C 678.435 1248.95 692.6 1249.11 698.747 1249.02 C 698.711 1238.84 698.736 1228.65 698.823 1218.47 C 721.442 1218.72 744.465 1218.42 767.117 1218.42 L 767.203 1275.76 C 774.762 1275.67 782.323 1275.68 789.882 1275.79 L 789.998 1299.19 C 807.765 1298.74 827.301 1299.13 845.216 1299.1 L 845.182 1325.9 L 908.26 1325.33 L 908.513 1353.24 C 985.342 1354.64 1065.91 1353.42 1143.01 1353.43 L 1142.97 1325.52 L 1203.06 1325.56 L 1203.06 1299.03 L 1267.4 1298.92 L 1267.47 1272.26 L 1290.92 1272.31 L 1290.81 1248.95 L 1318.96 1248.97 L 1318.86 1177.78 L 1342.65 1177.84 L 1342.16 1118.65 L 1369.01 1118.73 C 1370.23 1052.48 1369.06 985.147 1369 918.815 C 1360.95 919.124 1351.12 918.867 1342.93 918.881 L 1342.95 850.809 C 1334.33 850.531 1326.63 852.273 1318.76 849.956 C 1316.53 847.257 1317.25 848.044 1317.27 843.534 C 1316.62 827.131 1317.23 807.108 1317.06 790.19 L 1293.78 790.061 C 1293.68 781.992 1293.44 771.708 1293.88 763.838 C 1289.81 762.408 1257.02 763.251 1250.97 763.33 L 1251.04 734.957 L 1203.74 734.938 L 1203.9 710.104 L 1144.05 710.455 L 1144.13 684.797 L 908.928 683.644 L 908.954 710.135 L 844.178 710.005 L 844.281 734.865 L 804.913 734.642 L 804.954 759.49 C 795.994 759.396 785.816 759.039 776.986 759.751 L 777.1 785.108 C 769.89 785.22 762.679 785.267 755.469 785.249 L 755.662 816.778 L 727.279 816.785 C 727.352 832.183 727.739 848.861 727.317 864.157 C 720.329 864.015 711.605 864.067 704.773 863.573 L 697.036 863.72 C 696.648 897.297 696.972 931.561 697.015 965.19 L 756.551 965.317 C 766.464 965.314 782.131 964.806 791.369 965.599 C 793.311 968.19 792.448 991.853 792.381 996.578 L 771.056 996.87 L 771.024 1018.13 L 754.156 1018.33 L 754.185 1043.18 L 720.94 1043.02 L 720.959 1071.68 L 693.079 1071.44 L 693.067 1104.03 L 669.357 1103.99 C 669.321 1111.39 669.412 1119.16 669.187 1126.52 C 662.513 1126.64 655.671 1126.84 649.013 1126.72 C 648.929 1134.25 649.016 1138.49 647.624 1145.9 L 628.778 1146 C 628.804 1152.08 629.22 1165.99 628.44 1171.42 L 600.567 1171.39 C 600.258 1165.77 600.999 1150.76 599.054 1147.58 C 589.128 1147.78 579.199 1147.84 569.27 1147.77 C 569.22 1139.76 569.234 1131.75 569.311 1123.74 L 546.823 1123.75 C 546.75 1112.21 546.759 1100.67 546.85 1089.13 C 540.061 1089.13 533.827 1089.29 527.04 1089.52 C 526.977 1081.38 526.973 1073.25 527.029 1065.11 C 520.309 1065.12 513.59 1065.18 506.872 1065.31 L 506.914 1047.78 C 499.264 1047.72 491.615 1047.54 483.969 1047.25 L 483.753 1022.26 L 457.269 1022.33 L 457.355 993.176 L 433.001 993.133 L 432.984 966.203 L 533.691 965.774 C 534.159 932.674 533.889 899.02 533.917 865.878 C 542.324 865.585 551.312 865.707 559.768 865.671 L 559.424 790.066 L 585.27 790.06 L 585.003 736.735 L 613.566 736.757 C 613.481 726.586 613.756 715.778 613.866 705.569 L 644.707 705.779 C 644.643 697.412 644.805 688.801 644.857 680.41 C 656.619 679.839 668.139 679.891 679.906 679.87 L 679.996 658.64 L 701.011 658.633 L 701.008 634.73 L 723.006 634.591 L 723.192 612.922 C 732.92 612.302 742.279 612.261 752.008 612.168 L 751.835 589.038 L 800.999 589.098 L 800.991 562.383 L 858.917 562.195 L 858.953 535.142 L 924.463 535.097 C 924.503 526.801 924.497 518.506 924.445 510.21 z"
     fill="rgb(102,192,244)"
     id="path3"
     transform="translate(0,0)"
     style="fill:#0c6ba1;fill-opacity:1" />
  <metadata
     id="metadata28">
    <recraft-signature>{&quot;signed_by&quot;: &quot;recraft&quot;, &quot;signature_b64&quot;: &quot;ID4O8h2eJrAdRLUm694N5z9M0pTJZvatXQFeFB6iEOwJ0NSzzocA1I7IJyQRoBMXKLwplQz0lTiyhCSlZ5rvCw==&quot;, &quot;signing_algo&quot;: &quot;Ed25519&quot;, &quot;generation_timestamp&quot;: 1775144678, &quot;identifier&quot;: &quot;b10e86d2-a58b-4eae-9259-a49b4a9118ae&quot;}</recraft-signature>
  </metadata>
</svg>
